<svg width="32" height="32" fill="none" xmlns="http://www.w3.org/2000/svg"><path fill-rule="evenodd" clip-rule="evenodd" d="M16.064 22.976h1.28s.384-.064.576-.256c.192-.192.192-.576.192-.576s0-1.664.768-1.92 1.792 1.664 2.816 2.368c.768.576 1.344.448 1.344.448l2.816-.064s1.472-.064.768-1.28c-.064-.064-.384-.832-2.112-2.432-1.792-1.664-1.536-1.344.576-4.224 1.28-1.728 1.792-2.752 1.664-3.264-.128-.448-1.088-.32-1.088-.32h-3.2s-.256-.064-.384.064c-.192.128-.256.32-.256.32s-.512 1.344-1.152 2.496c-1.408 2.368-1.984 2.496-2.176 2.368-.512-.32-.384-1.408-.384-2.112 0-2.304.384-3.264-.704-3.52-.32-.064-.576-.128-1.472-.128-1.152 0-2.112 0-2.624.256-.384.192-.64.576-.448.576s.704.128.96.448c.256.576.256 1.536.256 1.536s.192 2.752-.448 3.072c-.448.256-1.024-.256-2.304-2.432-.64-1.088-1.152-2.368-1.152-2.368s-.064-.256-.256-.384-.512-.192-.512-.192H6.4s-.448 0-.64.192c-.128.192 0 .512 0 .512s2.368 5.504 5.056 8.32c2.496 2.688 5.248 2.496 5.248 2.496z" fill="#fff"/></svg>