<svg width="26" height="26" fill="none" xmlns="http://www.w3.org/2000/svg"><path d="M12.348.002c-2.086.028-6.573.37-9.083 2.67C1.402 4.526.751 7.257.675 10.639c-.065 3.37-.14 9.696 5.958 11.42v2.621s-.04 1.051.652 1.268c.856.27 1.344-.54 2.156-1.407l1.517-1.712c4.17.347 7.367-.454 7.735-.573.845-.271 5.613-.879 6.393-7.206.801-6.534-.39-10.65-2.535-12.514l-.011-.002C21.89 1.937 19.29.04 13.472.019c0 0-.429-.027-1.124-.017zm.072 1.839c.59-.004.954.021.954.021 4.918.011 7.27 1.495 7.822 1.994 1.81 1.548 2.74 5.26 2.059 10.716-.65 5.287-4.518 5.622-5.233 5.85-.303.097-3.12.79-6.664.563 0 0-2.643 3.186-3.466 4.01-.13.14-.282.184-.38.162-.14-.032-.183-.206-.172-.444l.021-4.354c-5.168-1.43-4.865-6.827-4.81-9.644.064-2.816.595-5.126 2.166-6.686 2.12-1.918 5.931-2.178 7.702-2.188h.001zm.39 2.816a.324.324 0 100 .65 6.1 6.1 0 014.366 1.722c1.181 1.148 1.756 2.686 1.778 4.701a.324.324 0 00.325.325v-.01a.325.325 0 00.325-.325 6.988 6.988 0 00-1.96-5.156c-1.29-1.257-2.917-1.907-4.835-1.907h.001zm-4.283.748a1.035 1.035 0 00-.666.13h-.013a5.14 5.14 0 00-1.244 1.018c-.292.347-.456.692-.5 1.028-.025.197-.006.397.055.586l.021.011c.334.982.77 1.926 1.3 2.817a16.663 16.663 0 002.514 3.435l.032.043.044.033.032.032.033.033a16.904 16.904 0 003.445 2.524c1.43.78 2.298 1.148 2.818 1.3v.01c.152.044.29.066.432.066a1.993 1.993 0 001.193-.512c.423-.379.759-.8 1.008-1.243v-.011c.25-.466.162-.911-.195-1.214-.72-.63-1.5-1.19-2.33-1.669-.552-.303-1.115-.119-1.343.184l-.487.617c-.25.303-.704.26-.704.26l-.013.01c-3.38-.866-4.28-4.288-4.28-4.288s-.043-.466.271-.704l.607-.488c.293-.238.498-.802.184-1.354a14.65 14.65 0 00-1.668-2.33.913.913 0 00-.546-.324zm4.846.964a.325.325 0 10.002.65 4.095 4.095 0 012.87 1.246 3.79 3.79 0 01.976 2.784.325.325 0 00.325.324l.01.013a.325.325 0 00.325-.326c.033-1.29-.368-2.373-1.159-3.24-.79-.866-1.896-1.354-3.304-1.451a.323.323 0 00-.045 0zm.53 1.754a.331.331 0 00-.019.662c1.072.054 1.592.596 1.657 1.711a.325.325 0 00.325.314h.011a.325.325 0 00.315-.346c-.076-1.452-.867-2.265-2.276-2.341h-.013z" fill="#fff"/></svg>