<svg width="26" height="26" fill="none" xmlns="http://www.w3.org/2000/svg"><path d="M22.438 14.691a9.72 9.72 0 00.16-1.74 9.55 9.55 0 00-2.81-6.782 9.542 9.542 0 00-3.05-2.053 9.528 9.528 0 00-3.733-.754c-.61 0-1.221.058-1.815.172a5.716 5.716 0 00-2.67-.664 5.643 5.643 0 00-4.014 1.663 5.643 5.643 0 00-1.663 4.014c0 .965.249 1.915.713 2.753a9.733 9.733 0 00-.144 1.653 9.52 9.52 0 00.754 3.732 9.542 9.542 0 002.054 3.05 9.54 9.54 0 003.05 2.054 9.525 9.525 0 005.412.604 5.68 5.68 0 002.793.736 5.632 5.632 0 004.015-1.663 5.632 5.632 0 001.663-4.014 5.647 5.647 0 00-.716-2.76zM20.2 20.175a3.805 3.805 0 01-2.722 1.128 3.847 3.847 0 01-1.894-.5l-.572-.323-.647.114a7.7 7.7 0 01-4.385-.49 7.71 7.71 0 01-2.468-1.663 7.726 7.726 0 01-2.272-5.487c0-.442.04-.894.116-1.34l.112-.638-.315-.566a3.835 3.835 0 01-.485-1.864c0-1.03.399-1.993 1.128-2.721A3.826 3.826 0 018.52 4.697a3.885 3.885 0 011.813.455l.569.3.63-.123a8 8 0 011.472-.14 7.74 7.74 0 015.489 2.273A7.701 7.701 0 0120.16 9.93c.406.957.61 1.97.61 3.022 0 .467-.044.94-.13 1.409l-.12.647.32.574a3.84 3.84 0 01.488 1.871 3.811 3.811 0 01-1.127 2.722zm-5.388-8.338l-2.245-.498c-.853-.195-1.835-.452-1.835-1.256 0-.805.688-1.369 1.932-1.369 2.506 0 2.277 1.721 3.521 1.721.656 0 1.23-.385 1.23-1.046 0-1.543-2.474-2.704-4.57-2.704-2.278 0-4.703.968-4.703 3.542 0 1.24.442 2.56 2.884 3.172l3.032.756c.916.226 1.148.742 1.148 1.209 0 .774-.77 1.53-2.164 1.53-2.722 0-2.343-2.094-3.8-2.094-.656 0-1.13.452-1.13 1.095 0 1.254 1.523 2.93 4.93 2.93 3.243 0 4.85-1.562 4.85-3.657 0-1.348-.622-2.782-3.08-3.33z" fill="#fff"/></svg>