<svg width="23" height="26" fill="none" xmlns="http://www.w3.org/2000/svg"><g clip-path="url(#clip0_1_269)"><path d="M20.158.245a2.52 2.52 0 011.804.734c.51.49.755 1.08.735 1.774v17.65c0 .713-.245 1.315-.735 1.804-.49.49-1.09.734-1.804.734H15.11v-8.84h2.538l.704-3.12H15.11v-2.11c0-.449.132-.867.397-1.254.265-.388.714-.582 1.346-.582h1.499V3.762h-2.264c-1.61 0-2.803.429-3.578 1.285-.775.857-1.163 1.978-1.163 3.365v2.57H8.81v3.12h2.54v8.84H2.51a2.417 2.417 0 01-1.775-.735c-.49-.49-.734-1.09-.734-1.805V2.753A2.413 2.413 0 01.734.979c.49-.49 1.08-.734 1.774-.734h17.65z" fill="#fff"/></g><defs><clipPath id="clip0_1_269"><path fill="#fff" d="M0 0h22.941v26H0z"/></clipPath></defs></svg>