<svg width="38" height="35" viewBox="0 0 38 35" fill="none" xmlns="http://www.w3.org/2000/svg">
<g filter="url(#filter0_dd_1_103)">
<path d="M18.612 26.75C18.1959 26.75 17.7948 26.5993 17.4822 26.3255C16.3017 25.2932 15.1634 24.3231 14.1592 23.4673L14.1541 23.4629C11.2099 20.9539 8.66747 18.7871 6.8985 16.6527C4.92105 14.2666 4 12.0042 4 9.53268C4 7.13138 4.8234 4.91604 6.31835 3.29444C7.83114 1.65366 9.90691 0.75 12.1639 0.75C13.8509 0.75 15.3958 1.28332 16.7556 2.33503C17.4419 2.86591 18.0639 3.51562 18.612 4.27346C19.1602 3.51562 19.7821 2.86591 20.4686 2.33503C21.8284 1.28332 23.3733 0.75 25.0602 0.75C27.3171 0.75 29.3931 1.65366 30.9058 3.29444C32.4008 4.91604 33.224 7.13138 33.224 9.53268C33.224 12.0042 32.3031 14.2666 30.3257 16.6525C28.5567 18.7871 26.0145 20.9537 23.0708 23.4624C22.0648 24.3195 20.9248 25.2912 19.7415 26.3259C19.4291 26.5993 19.0278 26.75 18.612 26.75V26.75ZM12.1639 2.4619C10.3907 2.4619 8.76178 3.16958 7.57674 4.45473C6.37409 5.75928 5.71167 7.56259 5.71167 9.53268C5.71167 11.6114 6.48423 13.4704 8.21642 15.5604C9.89064 17.5807 12.3809 19.7029 15.2642 22.1601L15.2696 22.1646C16.2776 23.0236 17.4203 23.9975 18.6095 25.0374C19.8059 23.9955 20.9504 23.0201 21.9604 22.1597C24.8435 19.7024 27.3336 17.5807 29.0078 15.5604C30.7397 13.4704 31.5123 11.6114 31.5123 9.53268C31.5123 7.56259 30.8499 5.75928 29.6472 4.45473C28.4624 3.16958 26.8332 2.4619 25.0602 2.4619C23.7613 2.4619 22.5687 2.87482 21.5156 3.68908C20.5772 4.41504 19.9234 5.33275 19.5402 5.97488C19.3431 6.30509 18.9961 6.50219 18.612 6.50219C18.2278 6.50219 17.8809 6.30509 17.6838 5.97488C17.3008 5.33275 16.647 4.41504 15.7084 3.68908C14.6553 2.87482 13.4627 2.4619 12.1639 2.4619V2.4619Z" fill="black"/>
</g>
<defs>
<filter id="filter0_dd_1_103" x="0" y="0.75" width="37.224" height="34" filterUnits="userSpaceOnUse" color-interpolation-filters="sRGB">
<feFlood flood-opacity="0" result="BackgroundImageFix"/>
<feColorMatrix in="SourceAlpha" type="matrix" values="0 0 0 0 0 0 0 0 0 0 0 0 0 0 0 0 0 0 127 0" result="hardAlpha"/>
<feOffset dy="4"/>
<feGaussianBlur stdDeviation="2"/>
<feComposite in2="hardAlpha" operator="out"/>
<feColorMatrix type="matrix" values="0 0 0 0 0 0 0 0 0 0 0 0 0 0 0 0 0 0 0.25 0"/>
<feBlend mode="normal" in2="BackgroundImageFix" result="effect1_dropShadow_1_103"/>
<feColorMatrix in="SourceAlpha" type="matrix" values="0 0 0 0 0 0 0 0 0 0 0 0 0 0 0 0 0 0 127 0" result="hardAlpha"/>
<feOffset dy="4"/>
<feGaussianBlur stdDeviation="2"/>
<feComposite in2="hardAlpha" operator="out"/>
<feColorMatrix type="matrix" values="0 0 0 0 0 0 0 0 0 0 0 0 0 0 0 0 0 0 0.25 0"/>
<feBlend mode="normal" in2="effect1_dropShadow_1_103" result="effect2_dropShadow_1_103"/>
<feBlend mode="normal" in="SourceGraphic" in2="effect2_dropShadow_1_103" result="shape"/>
</filter>
</defs>
</svg>
