<svg width="26" height="26" viewBox="0 0 26 26" fill="none" xmlns="http://www.w3.org/2000/svg">
<path d="M12.3478 0.00211749C10.2624 0.0302842 5.77526 0.372617 3.26518 2.67253C1.40184 4.52503 0.750762 7.25612 0.674928 10.6383C0.609928 14.0074 0.534095 20.3341 6.63326 22.0577V24.6794C6.63326 24.6794 6.5921 25.7302 7.28543 25.9469C8.14126 26.2177 8.62876 25.4063 9.44126 24.5396L10.9579 22.8279C15.1288 23.1746 18.3246 22.374 18.6929 22.2549C19.5379 21.984 24.3057 21.3763 25.0857 15.0485C25.8873 8.51495 24.6957 4.39828 22.5507 2.53495L22.5398 2.53278C21.8898 1.93695 19.2898 0.0411175 13.4723 0.0194508C13.4723 0.0194508 13.0433 -0.0076325 12.3478 0.00211749ZM12.4204 1.84053C13.0108 1.83728 13.3738 1.8622 13.3738 1.8622C18.2921 1.87303 20.644 3.3572 21.1965 3.85553C23.0057 5.40362 23.9352 9.1162 23.2548 14.5719C22.6048 19.8585 18.7373 20.1944 18.0223 20.4219C17.719 20.5194 14.9023 21.2127 11.3577 20.9852C11.3577 20.9852 8.71543 24.1713 7.8921 24.9946C7.7621 25.1354 7.61043 25.1788 7.51293 25.1571C7.3721 25.1246 7.32876 24.9513 7.3396 24.7129L7.36126 20.359C2.19268 18.929 2.49601 13.5319 2.55018 10.7152C2.61518 7.89853 3.14601 5.58887 4.71685 4.02887C6.83693 2.11137 10.6481 1.85137 12.4193 1.84053H12.4204ZM12.8104 4.6572C12.7678 4.65706 12.7256 4.66533 12.6861 4.68155C12.6467 4.69776 12.6109 4.7216 12.5807 4.75169C12.5505 4.78178 12.5265 4.81754 12.5102 4.85691C12.4938 4.89628 12.4854 4.93849 12.4854 4.98112C12.4854 5.06731 12.5197 5.14998 12.5806 5.21093C12.6416 5.27188 12.7242 5.30612 12.8104 5.30612C13.6158 5.29075 14.4163 5.43506 15.1656 5.7307C15.915 6.02634 16.5983 6.46747 17.1763 7.02862C18.3571 8.17695 18.9323 9.71528 18.954 11.7303C18.954 11.773 18.9624 11.8152 18.9788 11.8547C18.9951 11.8941 19.019 11.9299 19.0492 11.9601C19.0794 11.9903 19.1152 12.0142 19.1546 12.0305C19.1941 12.0469 19.2363 12.0553 19.279 12.0553V12.0455C19.3652 12.0455 19.4479 12.0113 19.5088 11.9503C19.5698 11.8894 19.604 11.8067 19.604 11.7205C19.6442 10.7729 19.4911 9.82705 19.154 8.94052C18.8169 8.05399 18.3028 7.24536 17.6432 6.56387C16.354 5.3072 14.7268 4.6572 12.8093 4.6572H12.8104ZM8.52693 5.4047C8.29654 5.37187 8.06182 5.41767 7.86068 5.5347H7.84768C7.40351 5.7947 6.99401 6.1197 6.60401 6.55303C6.31151 6.8997 6.14793 7.24528 6.1046 7.58112C6.0791 7.77808 6.0976 7.97825 6.15876 8.1672L6.18043 8.17803C6.51434 9.15969 6.95005 10.1037 7.48043 10.9947C8.16792 12.2425 9.01259 13.397 9.99376 14.4299L10.0263 14.4733L10.0696 14.5058L10.1021 14.5383L10.1346 14.5708C11.1716 15.5544 12.3292 16.4026 13.5796 17.0949C15.0096 17.8749 15.8784 18.2433 16.3984 18.3949V18.4058C16.5501 18.4491 16.6888 18.4708 16.8296 18.4708C17.2735 18.4384 17.6937 18.2584 18.0234 17.9594C18.4459 17.5803 18.7818 17.1599 19.0309 16.7158V16.7049C19.2801 16.2391 19.1934 15.7939 18.8359 15.4905C18.1154 14.8602 17.3354 14.3015 16.5068 13.8222C15.9543 13.5189 15.3909 13.703 15.1634 14.0064L14.6759 14.6228C14.4268 14.9261 13.9718 14.8828 13.9718 14.8828L13.9588 14.8936C10.5788 14.0269 9.6796 10.6047 9.6796 10.6047C9.6796 10.6047 9.63626 10.1389 9.95043 9.90053L10.5571 9.41303C10.8496 9.1747 11.0554 8.61137 10.7413 8.05887C10.2626 7.22983 9.70381 6.44971 9.07293 5.7297C8.9357 5.5595 8.74196 5.44419 8.52693 5.4047ZM13.3727 6.36887C13.2865 6.36915 13.2039 6.40367 13.1432 6.46482C13.0824 6.52598 13.0485 6.60875 13.0488 6.69495C13.049 6.78115 13.0836 6.8637 13.1447 6.92444C13.2059 6.98519 13.2887 7.01915 13.3748 7.01887C14.459 7.03769 15.4914 7.48572 16.2457 8.2647C16.586 8.64009 16.8476 9.07988 17.015 9.55808C17.1825 10.0363 17.2524 10.5432 17.2207 11.0489C17.221 11.1349 17.2553 11.2173 17.3163 11.278C17.3772 11.3387 17.4597 11.3728 17.5457 11.3728L17.5565 11.3858C17.5993 11.3858 17.6416 11.3773 17.6811 11.3609C17.7206 11.3445 17.7565 11.3205 17.7867 11.2902C17.8169 11.2599 17.8408 11.224 17.8571 11.1844C17.8734 11.1448 17.8817 11.1025 17.8815 11.0597C17.914 9.77053 17.5132 8.6872 16.7223 7.82053C15.9315 6.95387 14.8265 6.46637 13.4182 6.36887C13.403 6.3678 13.3878 6.3678 13.3727 6.36887ZM13.9035 8.12278C13.86 8.1215 13.8168 8.1288 13.7761 8.14425C13.7355 8.15969 13.6983 8.183 13.6666 8.21282C13.635 8.24265 13.6095 8.27842 13.5917 8.31808C13.5739 8.35775 13.5641 8.40053 13.5628 8.44399C13.5615 8.48745 13.5688 8.53074 13.5843 8.57139C13.5997 8.61203 13.623 8.64923 13.6528 8.68087C13.6827 8.71251 13.7184 8.73796 13.7581 8.75578C13.7978 8.77359 13.8406 8.78342 13.884 8.7847C14.9565 8.83887 15.4765 9.38053 15.5415 10.4964C15.5443 10.5807 15.5798 10.6606 15.6404 10.7192C15.7011 10.7778 15.7822 10.8106 15.8665 10.8105H15.8773C15.921 10.8092 15.9639 10.799 16.0036 10.7807C16.0432 10.7624 16.0787 10.7363 16.1081 10.7039C16.1374 10.6716 16.1599 10.6336 16.1742 10.5924C16.1886 10.5511 16.1944 10.5074 16.1915 10.4639C16.1157 9.0122 15.3248 8.19862 13.9165 8.12278C13.9122 8.1227 13.9078 8.1227 13.9035 8.12278Z" fill="white"/>
</svg>
