<svg width="32" height="32" viewBox="0 0 32 32" fill="none" xmlns="http://www.w3.org/2000/svg">
<path fill-rule="evenodd" clip-rule="evenodd" d="M16.064 22.976H17.344C17.344 22.976 17.728 22.912 17.92 22.72C18.112 22.528 18.112 22.144 18.112 22.144C18.112 22.144 18.112 20.48 18.88 20.224C19.648 19.968 20.672 21.888 21.696 22.592C22.464 23.168 23.04 23.04 23.04 23.04L25.856 22.976C25.856 22.976 27.328 22.912 26.624 21.696C26.56 21.632 26.24 20.864 24.512 19.264C22.72 17.6 22.976 17.92 25.088 15.04C26.368 13.312 26.88 12.288 26.752 11.776C26.624 11.328 25.664 11.456 25.664 11.456H22.464C22.464 11.456 22.208 11.392 22.08 11.52C21.888 11.648 21.824 11.84 21.824 11.84C21.824 11.84 21.312 13.184 20.672 14.336C19.264 16.704 18.688 16.832 18.496 16.704C17.984 16.384 18.112 15.296 18.112 14.592C18.112 12.288 18.496 11.328 17.408 11.072C17.088 11.008 16.832 10.944 15.936 10.944C14.784 10.944 13.824 10.944 13.312 11.2C12.928 11.392 12.672 11.776 12.864 11.776C13.056 11.776 13.568 11.904 13.824 12.224C14.08 12.8 14.08 13.76 14.08 13.76C14.08 13.76 14.272 16.512 13.632 16.832C13.184 17.088 12.608 16.576 11.328 14.4C10.688 13.312 10.176 12.032 10.176 12.032C10.176 12.032 10.112 11.776 9.92001 11.648C9.72801 11.52 9.40801 11.456 9.40801 11.456H6.40001C6.40001 11.456 5.95201 11.456 5.76001 11.648C5.63201 11.84 5.76001 12.16 5.76001 12.16C5.76001 12.16 8.12801 17.664 10.816 20.48C13.312 23.168 16.064 22.976 16.064 22.976V22.976Z" fill="white"/>
</svg>
