<svg width="23" height="26" viewBox="0 0 23 26" fill="none" xmlns="http://www.w3.org/2000/svg">
<g clip-path="url(#clip0_1_269)">
<path d="M20.1576 0.244751C20.851 0.244751 21.4525 0.489457 21.9624 0.978869C22.4722 1.46828 22.7169 2.05965 22.6965 2.75299V20.4024C22.6965 21.1161 22.4518 21.7177 21.9624 22.2071C21.4729 22.6965 20.8714 22.9412 20.1576 22.9412H15.1106V14.1012H17.6494L18.3529 10.9812H15.1106V8.87063C15.1106 8.42201 15.2431 8.00397 15.5082 7.61652C15.7733 7.22907 16.222 7.03534 16.8541 7.03534H18.3529V3.7624H16.0894C14.4784 3.7624 13.2855 4.19063 12.5106 5.0471C11.7357 5.90357 11.3482 7.02514 11.3482 8.41181V10.9812H8.80941V14.1012H11.3482V22.9412H2.50824C1.8149 22.9412 1.22353 22.6965 0.734118 22.2071C0.244706 21.7177 0 21.1161 0 20.4024V2.75299C0 2.05965 0.244706 1.46828 0.734118 0.978869C1.22353 0.489457 1.8149 0.244751 2.50824 0.244751H20.1576Z" fill="white"/>
</g>
<defs>
<clipPath id="clip0_1_269">
<rect width="22.9412" height="26" fill="white"/>
</clipPath>
</defs>
</svg>
