<svg width="26" height="26" viewBox="0 0 26 26" fill="none" xmlns="http://www.w3.org/2000/svg">
<path d="M22.4377 14.691C22.5418 14.1197 22.5977 13.5357 22.5977 12.9518C22.5977 11.6568 22.3438 10.4 21.8436 9.21934C21.3611 8.07676 20.668 7.05098 19.7869 6.16992C18.9132 5.294 17.8775 4.59635 16.7375 4.11582C15.5543 3.61563 14.3 3.36172 13.0051 3.36172C12.3957 3.36172 11.7838 3.42012 11.1897 3.53438C10.3676 3.09873 9.45152 2.87038 8.52111 2.86914C7.00529 2.86914 5.57834 3.46074 4.50685 4.53223C3.97812 5.05824 3.55891 5.68384 3.27345 6.37287C2.98799 7.06189 2.84195 7.80067 2.84377 8.54649C2.84377 9.51133 3.0926 10.4609 3.55724 11.2988C3.4633 11.8422 3.41252 12.3982 3.41252 12.9518C3.41252 14.2467 3.66642 15.5035 4.16662 16.6842C4.64904 17.8268 5.33967 18.8525 6.22072 19.7336C7.10177 20.6147 8.12756 21.3053 9.27013 21.7877C10.4533 22.2879 11.7076 22.5418 13.0026 22.5418C13.5662 22.5418 14.1299 22.491 14.6834 22.392C15.534 22.8719 16.4938 23.1283 17.4764 23.1283C18.9922 23.1283 20.4192 22.5393 21.4906 21.4652C22.5647 20.3938 23.1537 18.9668 23.1537 17.451C23.1563 16.4861 22.9074 15.534 22.4377 14.691ZM20.2008 20.1754C19.4721 20.9066 18.5098 21.3027 17.4789 21.3027C16.8162 21.3027 16.1637 21.1301 15.5848 20.8025L15.0135 20.4801L14.366 20.5943C13.9141 20.6756 13.457 20.7162 13.0051 20.7162C11.9539 20.7162 10.9408 20.5105 9.98107 20.1043C9.05939 19.7158 8.22912 19.1572 7.5131 18.4412C6.80431 17.7349 6.23949 16.8975 5.85002 15.9758C5.44377 15.0186 5.24064 14.0055 5.24064 12.9543C5.24064 12.5125 5.28127 12.0605 5.35744 11.6137L5.46916 10.9764L5.15431 10.4102C4.83676 9.8403 4.66984 9.19885 4.66935 8.54649C4.66935 7.51563 5.06799 6.55332 5.7967 5.82461C6.52795 5.0959 7.49025 4.69727 8.52111 4.69727C9.15339 4.69897 9.7757 4.85499 10.334 5.15176L10.9028 5.45137L11.5324 5.32949C12.0123 5.23809 12.5074 5.18984 13.0051 5.18984C14.0563 5.18984 15.0694 5.39551 16.0266 5.79922C16.9533 6.19023 17.7811 6.74883 18.4945 7.46231C19.2106 8.17578 19.7692 9.00606 20.1602 9.93027C20.5664 10.8875 20.7695 11.9006 20.7695 12.9518C20.7695 13.4189 20.7264 13.8912 20.6401 14.3609L20.5207 15.0084L20.8406 15.5822C21.1606 16.1535 21.3281 16.801 21.3281 17.4535C21.3281 18.4869 20.9295 19.4467 20.2008 20.1754ZM14.8129 11.8371L12.5684 11.3395C11.7153 11.1439 10.7326 10.8875 10.7326 10.0826C10.7326 9.27774 11.4207 8.71406 12.6649 8.71406C15.1709 8.71406 14.9424 10.4355 16.1865 10.4355C16.8416 10.4355 17.4154 10.0496 17.4154 9.38945C17.4154 7.8457 14.9424 6.68535 12.8451 6.68535C10.5676 6.68535 8.14279 7.65273 8.14279 10.2273C8.14279 11.4664 8.58459 12.7867 11.0272 13.3986L14.0588 14.1553C14.9754 14.3813 15.2065 14.8967 15.2065 15.3639C15.2065 16.1383 14.4371 16.8949 13.0432 16.8949C10.3213 16.8949 10.6996 14.8002 9.2422 14.8002C8.58713 14.8002 8.11232 15.2522 8.11232 15.8945C8.11232 17.1488 9.63576 18.8246 13.0432 18.8246C16.2856 18.8246 17.8928 17.2631 17.8928 15.1684C17.8928 13.8201 17.2707 12.3855 14.8129 11.8371Z" fill="white"/>
</svg>
