<svg width="36" height="36" viewBox="0 0 36 36" fill="none" xmlns="http://www.w3.org/2000/svg">
<path d="M8.71532 8.15285C13.3759 3.66027 20.3117 3.83933 24.6252 8.15285C28.75 12.2777 29.0022 18.8086 25.3817 23.2276L31.7847 29.6312L30.1937 31.2222L23.7901 24.8193C19.3711 28.4397 12.8401 28.1876 8.71532 24.0628C4.4018 19.7492 4.19898 12.5064 8.71532 8.15285ZM23.0342 9.74384C19.5195 6.22912 13.821 6.22912 10.3063 9.74384C6.79159 13.2586 6.79159 18.957 10.3063 22.4718C13.821 25.9865 19.5195 25.9865 23.0342 22.4718C26.549 18.957 26.549 13.2586 23.0342 9.74384Z" fill="black"/>
</svg>
