<svg width="22" height="14" viewBox="0 0 22 14" fill="none" xmlns="http://www.w3.org/2000/svg">
<path fill-rule="evenodd" clip-rule="evenodd" d="M11.064 12.976H12.344C12.344 12.976 12.728 12.912 12.92 12.72C13.112 12.528 13.112 12.144 13.112 12.144C13.112 12.144 13.112 10.48 13.88 10.224C14.648 9.96797 15.672 11.888 16.696 12.592C17.464 13.168 18.04 13.04 18.04 13.04L20.856 12.976C20.856 12.976 22.328 12.912 21.624 11.696C21.56 11.632 21.24 10.864 19.512 9.26397C17.72 7.59997 17.976 7.91997 20.088 5.03997C21.368 3.31197 21.88 2.28797 21.752 1.77597C21.624 1.32797 20.664 1.45597 20.664 1.45597H17.464C17.464 1.45597 17.208 1.39197 17.08 1.51997C16.888 1.64797 16.824 1.83997 16.824 1.83997C16.824 1.83997 16.312 3.18397 15.672 4.33597C14.264 6.70397 13.688 6.83197 13.496 6.70397C12.984 6.38397 13.112 5.29597 13.112 4.59197C13.112 2.28797 13.496 1.32797 12.408 1.07197C12.088 1.00797 11.832 0.94397 10.936 0.94397C9.78402 0.94397 8.82401 0.943969 8.31201 1.19997C7.92801 1.39197 7.67202 1.77597 7.86402 1.77597C8.05602 1.77597 8.56802 1.90397 8.82402 2.22397C9.08002 2.79997 9.08002 3.75997 9.08002 3.75997C9.08002 3.75997 9.27201 6.51197 8.63201 6.83197C8.18401 7.08797 7.60802 6.57597 6.32802 4.39997C5.68802 3.31197 5.17601 2.03197 5.17601 2.03197C5.17601 2.03197 5.11201 1.77597 4.92001 1.64797C4.72801 1.51997 4.40801 1.45597 4.40801 1.45597H1.40001C1.40001 1.45597 0.952014 1.45597 0.760014 1.64797C0.632014 1.83997 0.760014 2.15997 0.760014 2.15997C0.760014 2.15997 3.12801 7.66397 5.81601 10.48C8.31202 13.168 11.064 12.976 11.064 12.976Z" fill="white"/>
</svg>
